<?xml version="1.0" encoding="utf-8"?>
<!-- Generator: Adobe Illustrator 28.3.0, SVG Export Plug-In . SVG Version: 6.00 Build 0)  -->
<svg version="1.1" id="Camada_1" xmlns="http://www.w3.org/2000/svg" xmlns:xlink="http://www.w3.org/1999/xlink" x="0px" y="0px"
	 viewBox="0 0 842.1 227.95" style="enable-background:new 0 0 842.1 227.95;" xml:space="preserve">
<style type="text/css">
	.st0{fill:#FFFFFF;}
	.st1{fill:#737277;}
	.st2{fill:#9C9BA0;}
	.st3{fill:#434041;}
	.st4{fill:#1B4C97;}
	.st5{fill:#FDD000;}
	.st6{fill:#FFEF00;}
	.st7{fill:#627AB7;}
	.st8{fill:#858E6D;}
	.st9{fill:#90A8D4;}
	.st10{fill:#B0AFB5;}
	.st11{fill:#D8DADE;}
	.st12{fill:#D9E6B1;}
	.st13{opacity:0.2;fill:#D9E6B1;}
</style>
<g>
	<g>
		<path class="st4" d="M139.69,187.69v-35.55h6.57c11.3,16.37,17.31,25.1,18.04,26.17v-26.17h5.91v35.55h-6.59
			c-10.92-15.77-16.98-24.51-18.19-26.22v26.22H139.69z"/>
		<path class="st4" d="M193.61,188.25c-4.22,0-7.54-1.2-9.97-3.61c-2.43-2.41-3.65-5.56-3.65-9.45c0-1.76,0.29-3.43,0.88-5
			c0.59-1.58,1.41-2.98,2.48-4.2c1.07-1.22,2.42-2.19,4.05-2.91c1.64-0.72,3.45-1.07,5.43-1.07c1.99,0,3.72,0.34,5.2,1.03
			c1.48,0.68,2.65,1.64,3.52,2.87c0.86,1.23,1.5,2.61,1.92,4.14c0.42,1.53,0.62,3.22,0.62,5.08c0,0.47-0.04,0.83-0.12,1.07h-17.58
			c0.1,2.44,0.84,4.25,2.23,5.42s3.24,1.76,5.55,1.76c2.7,0,5.34-0.89,7.91-2.69l1.64,4.39c-1.58,1.09-3.17,1.89-4.77,2.41
			C197.34,187.99,195.56,188.25,193.61,188.25z M186.45,172.16h12.45c-0.29-1.77-0.95-3.13-1.98-4.08
			c-1.03-0.94-2.28-1.42-3.76-1.42c-1.74,0-3.2,0.49-4.37,1.46S186.84,170.45,186.45,172.16z"/>
		<path class="st4" d="M223.4,197.89c-3.26,0-6.43-0.57-9.52-1.71l1.05-5.22c2.44,1.27,5.12,1.9,8.03,1.9c2.34,0,4.17-0.5,5.49-1.5
			c1.32-1,1.98-2.51,1.98-4.53v-2.12c-1.43,1.99-3.52,2.98-6.27,2.98c-3.69,0-6.66-1.13-8.89-3.41c-2.23-2.27-3.34-5.33-3.34-9.17
			c0-1.76,0.24-3.41,0.71-4.94c0.47-1.54,1.17-2.92,2.1-4.16c0.93-1.24,2.16-2.21,3.7-2.93c1.54-0.72,3.29-1.07,5.26-1.07
			c1.55,0,2.9,0.31,4.06,0.93c1.16,0.62,2.06,1.42,2.7,2.39v-2.69h6.42c-0.33,2.47-0.49,5.27-0.49,8.4v13.06
			C236.39,193.29,232.06,197.89,223.4,197.89z M224.57,183.12c0.96,0,1.81-0.16,2.54-0.48c0.73-0.32,1.33-0.73,1.78-1.25
			c0.46-0.51,0.83-1.13,1.11-1.84c0.28-0.72,0.48-1.44,0.59-2.16c0.11-0.72,0.16-1.49,0.16-2.31c0-2.44-0.51-4.42-1.53-5.92
			c-1.02-1.51-2.54-2.26-4.58-2.26c-1.4,0-2.59,0.39-3.58,1.18c-0.98,0.79-1.7,1.79-2.14,2.99c-0.44,1.21-0.66,2.55-0.66,4.03
			c0,2.51,0.51,4.47,1.54,5.88S222.42,183.12,224.57,183.12z"/>
		<path class="st4" d="M257.76,188.25c-2.18,0-4.13-0.35-5.83-1.06c-1.71-0.71-3.09-1.67-4.14-2.88c-1.05-1.21-1.85-2.6-2.39-4.15
			c-0.55-1.55-0.82-3.22-0.82-4.99c0-1.81,0.28-3.5,0.83-5.07c0.55-1.57,1.36-2.96,2.43-4.18c1.07-1.21,2.45-2.17,4.15-2.87
			c1.7-0.7,3.62-1.05,5.75-1.05c2.18,0,4.12,0.35,5.81,1.04c1.69,0.69,3.05,1.64,4.08,2.86c1.03,1.21,1.79,2.6,2.31,4.17
			c0.51,1.57,0.77,3.28,0.77,5.14c0,1.74-0.27,3.38-0.81,4.92c-0.54,1.54-1.32,2.92-2.36,4.14c-1.03,1.22-2.39,2.19-4.08,2.91
			S259.88,188.25,257.76,188.25z M257.64,183.37c1.19,0,2.23-0.22,3.12-0.67c0.9-0.45,1.6-1.07,2.11-1.86
			c0.51-0.79,0.9-1.66,1.15-2.62c0.25-0.96,0.38-2,0.38-3.12c0-2.39-0.57-4.35-1.7-5.88c-1.13-1.53-2.81-2.29-5.04-2.29
			c-1.51,0-2.79,0.38-3.83,1.14c-1.04,0.76-1.79,1.74-2.26,2.94c-0.46,1.21-0.7,2.57-0.7,4.1c0,1.51,0.22,2.87,0.65,4.08
			c0.43,1.21,1.17,2.21,2.22,3C254.79,182.97,256.09,183.37,257.64,183.37z M255,159.22l6.45-7.08h7.76l-8.64,7.08H255z"/>
		<path class="st4" d="M291.56,188.25c-2.03,0-3.89-0.36-5.58-1.07s-3.06-1.68-4.14-2.91s-1.9-2.62-2.49-4.19
			c-0.59-1.57-0.88-3.22-0.88-4.94c0-2.47,0.51-4.7,1.53-6.68c1.02-1.98,2.52-3.55,4.52-4.71c1.99-1.16,4.32-1.75,6.97-1.75
			c3.94,0,6.97,1.12,9.08,3.37l-2.17,3.91c-1.81-1.59-3.9-2.39-6.27-2.39c-2.38,0-4.2,0.75-5.47,2.25c-1.27,1.5-1.9,3.51-1.9,6.03
			c0,2.46,0.68,4.44,2.03,5.94c1.35,1.51,3.2,2.26,5.54,2.26c0.33,0,0.65-0.02,0.98-0.05c0.33-0.03,0.62-0.07,0.88-0.12
			c0.26-0.05,0.53-0.12,0.82-0.21c0.28-0.09,0.52-0.17,0.72-0.24c0.2-0.07,0.42-0.17,0.66-0.31c0.24-0.13,0.44-0.23,0.57-0.31
			c0.14-0.07,0.31-0.18,0.52-0.33c0.21-0.15,0.35-0.24,0.43-0.29s0.2-0.14,0.39-0.28c0.19-0.14,0.29-0.22,0.31-0.23l1.83,4.44
			c-1.4,0.98-2.8,1.69-4.2,2.14C294.82,188.03,293.27,188.25,291.56,188.25z"/>
		<path class="st4" d="M307.95,157.46v-5.32h5.86v5.32H307.95z M307.98,187.69v-25.05h5.83v25.05H307.98z"/>
		<path class="st4" d="M335.6,188.25c-2.18,0-4.13-0.35-5.83-1.06c-1.71-0.71-3.09-1.67-4.14-2.88c-1.05-1.21-1.85-2.6-2.39-4.15
			c-0.55-1.55-0.82-3.22-0.82-4.99c0-1.81,0.28-3.5,0.83-5.07c0.55-1.57,1.36-2.96,2.43-4.18c1.07-1.21,2.45-2.17,4.15-2.87
			c1.7-0.7,3.62-1.05,5.75-1.05c2.18,0,4.12,0.35,5.81,1.04c1.69,0.69,3.05,1.64,4.08,2.86c1.03,1.21,1.79,2.6,2.31,4.17
			c0.51,1.57,0.77,3.28,0.77,5.14c0,1.74-0.27,3.38-0.81,4.92c-0.54,1.54-1.32,2.92-2.36,4.14c-1.03,1.22-2.39,2.19-4.08,2.91
			S337.71,188.25,335.6,188.25z M335.48,183.37c1.19,0,2.23-0.22,3.12-0.67c0.9-0.45,1.6-1.07,2.11-1.86
			c0.51-0.79,0.9-1.66,1.15-2.62c0.25-0.96,0.38-2,0.38-3.12c0-2.39-0.57-4.35-1.7-5.88c-1.13-1.53-2.81-2.29-5.04-2.29
			c-1.51,0-2.79,0.38-3.83,1.14c-1.04,0.76-1.79,1.74-2.26,2.94c-0.46,1.21-0.7,2.57-0.7,4.1c0,1.51,0.22,2.87,0.65,4.08
			c0.43,1.21,1.17,2.21,2.22,3C332.63,182.97,333.93,183.37,335.48,183.37z"/>
		<path class="st4" d="M366.71,188.25c-2.2,0-4.22-0.31-6.05-0.93c-1.84-0.62-3.3-1.36-4.39-2.22l1.51-4.35
			c1.03,0.8,2.32,1.45,3.88,1.96c1.56,0.51,3.07,0.77,4.52,0.77c1.35,0,2.37-0.23,3.06-0.68c0.69-0.46,1.04-1.2,1.04-2.22v-0.44
			c0-0.52-0.2-0.96-0.61-1.33c-0.41-0.37-1.34-0.78-2.81-1.26l-3.56-1.15c-0.91-0.29-1.67-0.57-2.27-0.82
			c-0.6-0.25-1.22-0.57-1.84-0.96c-0.63-0.39-1.12-0.82-1.46-1.28c-0.35-0.46-0.63-1.03-0.85-1.71c-0.22-0.67-0.33-1.45-0.33-2.33
			c0-1.27,0.25-2.38,0.74-3.34c0.5-0.96,1.18-1.72,2.06-2.27c0.88-0.55,1.86-0.96,2.93-1.23c1.07-0.27,2.25-0.4,3.54-0.4
			c1.59,0,3.19,0.2,4.79,0.61c1.59,0.41,2.99,1.01,4.2,1.81l-1.56,4.15c-0.98-0.52-2.12-0.96-3.43-1.32
			c-1.31-0.36-2.49-0.54-3.55-0.54c-1.38,0-2.38,0.17-3,0.51c-0.62,0.34-0.93,0.9-0.93,1.68c0,0.52,0.1,0.93,0.29,1.22
			s0.6,0.59,1.22,0.9c0.62,0.31,1.61,0.69,2.98,1.15l3.25,1.1c1.3,0.44,2.35,0.92,3.14,1.44c0.79,0.52,1.42,1.26,1.9,2.22
			c0.48,0.96,0.72,2.17,0.72,3.61c0,1.11-0.18,2.11-0.55,3c-0.37,0.9-0.85,1.63-1.44,2.2c-0.59,0.57-1.29,1.04-2.1,1.42
			c-0.81,0.38-1.62,0.64-2.45,0.79C368.44,188.17,367.59,188.25,366.71,188.25z"/>
		<path class="st4" d="M401.37,187.69v-35.55h6.2v35.55H401.37z"/>
		<path class="st4" d="M418.18,187.69V170.7c0-1.72-0.08-3.5-0.24-5.32l-0.22-2.73h6.37v3.27c0.62-1.14,1.57-2.08,2.84-2.81
			c1.28-0.73,2.67-1.1,4.16-1.1c1.61,0,3.08,0.39,4.42,1.17c1.33,0.78,2.36,1.94,3.08,3.47c2.15-3.09,4.86-4.64,8.13-4.64
			c3.06,0,5.36,0.92,6.9,2.76c1.54,1.84,2.31,4.36,2.31,7.57v15.36h-6.05V172.7c0-0.67-0.06-1.31-0.17-1.93
			c-0.11-0.62-0.3-1.23-0.55-1.84c-0.25-0.61-0.63-1.1-1.12-1.46c-0.5-0.37-1.09-0.55-1.77-0.55c-1.79,0-3.26,0.68-4.42,2.05
			c-1.16,1.37-1.73,2.88-1.73,4.54v14.18h-6.05v-15.31c0-0.49-0.03-0.96-0.09-1.4c-0.06-0.45-0.17-0.93-0.33-1.44
			c-0.16-0.51-0.38-0.96-0.65-1.33c-0.27-0.37-0.64-0.68-1.12-0.93c-0.48-0.24-1.03-0.37-1.65-0.37c-1.71,0-3.13,0.56-4.27,1.67
			c-1.14,1.11-1.71,2.41-1.71,3.89v15.21H418.18z"/>
		<path class="st4" d="M477.49,188.25c-2.18,0-4.13-0.35-5.83-1.06c-1.71-0.71-3.09-1.67-4.14-2.88c-1.05-1.21-1.85-2.6-2.39-4.15
			c-0.55-1.55-0.82-3.22-0.82-4.99c0-1.81,0.28-3.5,0.83-5.07c0.55-1.57,1.36-2.96,2.43-4.18c1.07-1.21,2.45-2.17,4.15-2.87
			c1.7-0.7,3.62-1.05,5.75-1.05c2.18,0,4.12,0.35,5.81,1.04c1.69,0.69,3.05,1.64,4.08,2.86c1.03,1.21,1.79,2.6,2.31,4.17
			c0.51,1.57,0.77,3.28,0.77,5.14c0,1.74-0.27,3.38-0.81,4.92c-0.54,1.54-1.32,2.92-2.36,4.14c-1.03,1.22-2.39,2.19-4.08,2.91
			C481.51,187.89,479.61,188.25,477.49,188.25z M477.37,183.37c1.19,0,2.23-0.22,3.12-0.67c0.89-0.45,1.6-1.07,2.11-1.86
			c0.51-0.79,0.89-1.66,1.15-2.62c0.25-0.96,0.38-2,0.38-3.12c0-2.39-0.57-4.35-1.7-5.88c-1.13-1.53-2.81-2.29-5.04-2.29
			c-1.51,0-2.79,0.38-3.83,1.14c-1.04,0.76-1.79,1.74-2.26,2.94c-0.46,1.21-0.7,2.57-0.7,4.1c0,1.51,0.22,2.87,0.65,4.08
			c0.43,1.21,1.17,2.21,2.22,3C474.52,182.97,475.82,183.37,477.37,183.37z"/>
		<path class="st4" d="M512.76,188.25c-1.68,0-3.2-0.36-4.58-1.09c-1.38-0.72-2.36-1.58-2.97-2.58v3.1h-6.2
			c0.03-1.11,0.06-2.09,0.1-2.95c0.03-0.86,0.06-1.48,0.07-1.84c0.02-0.37,0.03-0.68,0.04-0.95c0.01-0.27,0.01-0.45,0.01-0.55
			s0-0.21,0-0.34v-28.93h6.01v14.04c0.08-0.29,0.28-0.65,0.61-1.07c0.33-0.42,0.79-0.88,1.38-1.36c0.59-0.48,1.41-0.89,2.44-1.22
			c1.03-0.33,2.17-0.5,3.41-0.5c3.52,0,6.29,1.21,8.33,3.64c2.03,2.43,3.05,5.56,3.05,9.4c0,1.92-0.31,3.71-0.94,5.37
			c-0.63,1.66-1.47,3.06-2.53,4.2c-1.06,1.14-2.3,2.03-3.72,2.67C515.84,187.93,514.33,188.25,512.76,188.25z M511.63,183.37
			c1.12,0,2.11-0.22,2.97-0.67c0.85-0.45,1.53-1.06,2.03-1.84c0.5-0.78,0.87-1.64,1.12-2.59c0.25-0.94,0.38-1.96,0.38-3.05
			c0-2.41-0.54-4.39-1.61-5.96s-2.64-2.34-4.69-2.34c-2.13,0-3.83,0.79-5.08,2.36c-1.25,1.57-1.88,3.52-1.88,5.85
			c0,1.48,0.24,2.83,0.72,4.04c0.48,1.21,1.24,2.22,2.28,3.02C508.91,182.97,510.17,183.37,511.63,183.37z"/>
		<path class="st4" d="M533.05,157.46v-5.32h5.86v5.32H533.05z M533.08,187.69v-25.05h5.83v25.05H533.08z"/>
		<path class="st4" d="M548.35,187.69v-35.57h5.98v35.57H548.35z"/>
		<path class="st4" d="M563.69,157.46v-5.32h5.86v5.32H563.69z M563.71,187.69v-25.05h5.83v25.05H563.71z"/>
		<path class="st4" d="M590.48,188.25c-2.04,0-3.86-0.37-5.47-1.1s-2.91-1.71-3.88-2.93s-1.72-2.58-2.22-4.08
			c-0.5-1.5-0.76-3.07-0.76-4.71c0-1.74,0.26-3.4,0.78-4.97c0.52-1.57,1.28-2.99,2.28-4.27c1-1.28,2.32-2.29,3.97-3.05
			c1.64-0.76,3.51-1.13,5.59-1.13c3.03,0,5.35,1.1,6.98,3.3v-2.66h5.93v25.05h-6.08v-3.42
			C595.79,186.92,593.41,188.25,590.48,188.25z M591.24,183.37c2.34,0,4.05-0.75,5.12-2.23c1.07-1.49,1.6-3.48,1.6-5.97
			c0-2.55-0.57-4.57-1.7-6.04c-1.13-1.47-2.84-2.21-5.14-2.21c-2.25,0-3.97,0.74-5.16,2.22c-1.2,1.48-1.79,3.48-1.79,5.98
			c0,2.51,0.6,4.51,1.79,6.01C587.15,182.62,588.91,183.37,591.24,183.37z M589.7,159.22l6.45-7.08h7.76l-8.64,7.08H589.7z"/>
		<path class="st4" d="M613.49,187.69v-18.7c0-0.98-0.04-1.99-0.12-3.05c-0.08-1.06-0.16-1.87-0.24-2.44l-0.12-0.85h6.45v3.3
			c0.99-1.3,1.98-2.28,2.97-2.94c0.98-0.66,2.09-0.99,3.33-0.99c0.73,0,1.56,0.12,2.49,0.37v5.3c-1.09-0.36-2.1-0.54-3.03-0.54
			c-1.68,0-3.04,0.55-4.1,1.64c-1.06,1.09-1.59,2.67-1.59,4.74v14.18H613.49z"/>
		<path class="st4" d="M634.54,157.46v-5.32h5.86v5.32H634.54z M634.57,187.69v-25.05h5.83v25.05H634.57z"/>
		<path class="st4" d="M662.19,188.25c-2.18,0-4.13-0.35-5.83-1.06c-1.71-0.71-3.09-1.67-4.14-2.88c-1.05-1.21-1.85-2.6-2.39-4.15
			c-0.55-1.55-0.82-3.22-0.82-4.99c0-1.81,0.28-3.5,0.83-5.07c0.55-1.57,1.36-2.96,2.43-4.18c1.07-1.21,2.45-2.17,4.15-2.87
			c1.7-0.7,3.62-1.05,5.75-1.05c2.18,0,4.12,0.35,5.81,1.04c1.69,0.69,3.05,1.64,4.08,2.86c1.03,1.21,1.79,2.6,2.31,4.17
			c0.51,1.57,0.77,3.28,0.77,5.14c0,1.74-0.27,3.38-0.81,4.92c-0.54,1.54-1.32,2.92-2.36,4.14c-1.03,1.22-2.39,2.19-4.08,2.91
			C666.2,187.89,664.3,188.25,662.19,188.25z M662.07,183.37c1.19,0,2.23-0.22,3.12-0.67c0.89-0.45,1.6-1.07,2.11-1.86
			c0.51-0.79,0.89-1.66,1.15-2.62c0.25-0.96,0.38-2,0.38-3.12c0-2.39-0.57-4.35-1.7-5.88c-1.13-1.53-2.81-2.29-5.04-2.29
			c-1.51,0-2.79,0.38-3.83,1.14c-1.04,0.76-1.79,1.74-2.26,2.94c-0.46,1.21-0.7,2.57-0.7,4.1c0,1.51,0.22,2.87,0.65,4.08
			c0.43,1.21,1.17,2.21,2.22,3C659.22,182.97,660.52,183.37,662.07,183.37z"/>
		<path class="st4" d="M693.3,188.25c-2.2,0-4.22-0.31-6.05-0.93c-1.84-0.62-3.3-1.36-4.39-2.22l1.51-4.35
			c1.03,0.8,2.32,1.45,3.88,1.96c1.56,0.51,3.07,0.77,4.52,0.77c1.35,0,2.37-0.23,3.06-0.68c0.69-0.46,1.04-1.2,1.04-2.22v-0.44
			c0-0.52-0.2-0.96-0.61-1.33c-0.41-0.37-1.34-0.78-2.81-1.26l-3.56-1.15c-0.91-0.29-1.67-0.57-2.27-0.82
			c-0.6-0.25-1.22-0.57-1.84-0.96c-0.63-0.39-1.12-0.82-1.46-1.28c-0.35-0.46-0.63-1.03-0.86-1.71c-0.22-0.67-0.33-1.45-0.33-2.33
			c0-1.27,0.25-2.38,0.75-3.34c0.5-0.96,1.18-1.72,2.06-2.27c0.88-0.55,1.86-0.96,2.93-1.23c1.07-0.27,2.25-0.4,3.54-0.4
			c1.59,0,3.19,0.2,4.79,0.61c1.59,0.41,2.99,1.01,4.2,1.81l-1.56,4.15c-0.98-0.52-2.12-0.96-3.43-1.32
			c-1.31-0.36-2.49-0.54-3.55-0.54c-1.38,0-2.38,0.17-3,0.51c-0.62,0.34-0.93,0.9-0.93,1.68c0,0.52,0.1,0.93,0.29,1.22
			s0.6,0.59,1.22,0.9c0.62,0.31,1.61,0.69,2.98,1.15l3.25,1.1c1.3,0.44,2.35,0.92,3.14,1.44c0.79,0.52,1.42,1.26,1.9,2.22
			c0.48,0.96,0.72,2.17,0.72,3.61c0,1.11-0.18,2.11-0.55,3c-0.37,0.9-0.85,1.63-1.44,2.2c-0.59,0.57-1.29,1.04-2.1,1.42
			c-0.81,0.38-1.62,0.64-2.45,0.79C695.04,188.17,694.18,188.25,693.3,188.25z"/>
	</g>
	<g>
		<path class="st4" d="M316.88,43.36l-7.66,15.47c0.13,0-9.09-10.23-17.2-10.23c-6.28,0-11.65,2.88-11.65,9.16
			c0,7.85,4.97,12.3,15.7,16.49c13.87,5.5,22.25,11.52,22.25,26.04c0,13.35-10.34,26.7-29.44,26.7c-13.61,0-24.86-6.41-28.4-8.51
			l5.5-12.04c-0.13,0,14.39,8.38,21.85,8.38c9.16,0,13.74-4.84,13.74-12.96c0-7.85-4.97-10.73-13.09-14
			c-15.7-6.54-25.13-12.69-25.13-27.87c0-12.82,11.65-23.56,27.87-23.56C303.4,36.43,314.39,41.66,316.88,43.36z"/>
		<path class="st4" d="M365.58,61.03h14.92v33.63c0,20.68,9.85,26.43,9.85,26.43l-15.22,6.16c0,0-5.36-4.97-6.54-14.53
			c-4.71,10.21-14,14.26-23.29,14.26c-13.74,0-19.11-8.64-19.11-22.51V61.03h14.92v43.18c0,7.2,2.36,11.78,8.64,11.78
			c7.72,0,15.83-9.16,15.83-23.03V61.03z"/>
		<path class="st4" d="M412.96,30.06l-2.94,38.56c4.14-2.49,7.7-5.88,15.12-7.59c9.17-2.12,18.13-3.1,18.13,7.76
			c0,15.44-9.56,28.22-9.56,28.22l18.32,29.18h-16.88L416.3,93.61l-0.13-1.31c2.88-0.65,9.77-8.4,12.57-15.66
			c1.84-4.76-1.55-4.4-6.16-2.93c-6.98,2.22-12.56,9.3-12.56,10.47v42.01H395.1V33.94L412.96,30.06z"/>
		<path class="st4" d="M470.91,69.4c4.97-6.67,12.56-9.42,20.28-9.42c13.48,0,19.11,8.83,19.11,22.51c0,27.04,7.08,43.71,7.08,43.71
			h-22V83.54c0-7.33-2.36-11.91-8.64-11.91c-7.2,0-15.83,8.11-15.83,20.02v34.55h-14.92V33.94l14.92-2.62V69.4z"/>
		<path class="st4" d="M575.34,94.66c0,20.68,6.28,27.87,6.28,27.87l-11.65,4.71c0,0-6.02-5.5-6.67-16.1
			c-2.88,10.47-9.29,15.83-20.41,15.83c-16.36,0-24.08-12.82-24.08-32.45c0-19.89,12.69-34.55,31.28-34.55
			c10.47,0,24.08,3.53,25.26,3.8V94.66z M560.42,90.73V71.89c-1.7-0.52-5.89-1.44-8.64-1.44c-13.09,0-16.88,9.55-16.88,22.77
			c0,12.17,0.92,23.29,10.47,23.29C554.01,116.51,560.42,103.56,560.42,90.73z"/>
	</g>
</g>
</svg>
