<?xml version="1.0" encoding="utf-8"?>
<!-- Generator: Adobe Illustrator 28.3.0, SVG Export Plug-In . SVG Version: 6.00 Build 0)  -->
<svg version="1.1" id="Camada_1" xmlns="http://www.w3.org/2000/svg" xmlns:xlink="http://www.w3.org/1999/xlink" x="0px" y="0px"
	 viewBox="0 0 1000 1000" style="enable-background:new 0 0 1000 1000;" xml:space="preserve">
<style type="text/css">
	.st0{fill:#FFFFFF;}
	.st1{fill:#737277;}
	.st2{fill:#9C9BA0;}
	.st3{fill:#434041;}
	.st4{fill:#1B4C97;}
	.st5{fill:#FDD000;}
	.st6{fill:#FFEF00;}
	.st7{fill:#627AB7;}
	.st8{fill:#858E6D;}
	.st9{fill:#90A8D4;}
	.st10{fill:#B0AFB5;}
	.st11{fill:#D8DADE;}
	.st12{fill:#D9E6B1;}
	.st13{opacity:0.2;fill:#D9E6B1;}
</style>
<g>
	<path class="st4" d="M485.51,275.46c-6.57-7.51-13.19-15.07-20.03-22.88c-4.28,3.41-7.96,6.53-11.83,9.38
		c-7.81,5.74-16.25,9.67-26.35,8.6c-10.98-1.17-17.07-8.1-16.61-19.08c0.47-11.25,9.21-20.95,22.6-24.42
		c16.74-4.33,32.74-2.09,47.88,6.3c20.87,11.57,36.26,29.12,51.39,46.96c3.34,3.94,6.7,7.87,10.61,12.46
		c5.26-6.44,9.81-12.01,14.73-18.03c-27.99-29.83-57.17-57.55-96.49-71.12c-9.73-3.36-20.77-4.6-31.11-4.23
		c-23.81,0.85-41.5,17.22-43,38.67c-1.1,15.69,5.4,28.75,16.31,39.67C426.59,300.76,466.12,299.76,485.51,275.46z"/>
	<path class="st5" d="M481.17,233.37c-15.14-8.39-31.14-10.63-47.88-6.3c-13.39,3.46-22.13,13.17-22.6,24.42
		c-0.46,10.99,5.63,17.91,16.61,19.08c10.09,1.07,18.53-2.86,26.35-8.6c3.87-2.85,7.55-5.97,11.83-9.38
		c6.84,7.81,13.46,15.37,20.03,22.88c0,0,6.38-11.56,22.09-8.72c15.7,2.84,35.57,26.05,35.57,26.05
		c-3.91-4.59-7.27-8.52-10.61-12.46C517.42,262.49,502.04,244.93,481.17,233.37z"/>
	<path class="st4" d="M648.28,518.33c-1.68-3.49-4.01-4.52-7.78-4.48c-19.17,0.18-38.34,0.11-57.51,0.09
		c-2.32,0-4.64-0.21-8.65-0.41c0.91-20.77,1.87-40.74,2.62-60.72c0.2-5.28,2.17-6.23,7.41-5.82c11.81,0.91,23.74,1.38,35.55,0.7
		c8.1-0.47,11.3-5.08,10.29-13.09c-0.68-5.34-1.86-11.19-4.71-15.58c-8.86-13.62-18.05-27.1-28.15-39.81
		c-20.69-26.03-42.07-51.5-63.11-77.25c-2.39-2.93-4.75-5.78-8.66-2.71c-5.99,4.69-11.76,9.68-17.96,14.82
		c26.59,27.46,69.56,69.32,78.79,81.36c9.24,12.04,17.22,21.54,12.03,24.96c-5.34,3.52-32.08,4.37-44.86-3.57
		c-12.79-7.95-60.76-32.24-98.08-19.98c0-3.44-0.01-5.99,0-8.54c0.07-20.49,0.06-40.98,0.29-61.47c0.04-3.7-0.98-6.01-4.26-7.98
		c-7.72-4.67-15.12-9.87-22.78-14.65c-1.95-1.22-4.37-1.67-7.06-2.65c0,71.54,0,141.7,0,211.76c-14.58,0-29.08,0-43.65,0
		c-0.21,0-0.43,0-0.64,0c-12.44,0-24.8,0-37.97,0c1.09,3.52,1.55,6.1,2.65,8.37c2.42,5.04,5.46,9.8,7.69,14.93
		c2.08,4.78,5.08,6.25,10.33,6.24c5.9,0,11.8,0,17.7-0.01c91.37-0.02,182.74-0.02,274.11-0.03c2.28,0,4.55-0.26,8.67-0.52
		C655.99,533.42,651.96,525.96,648.28,518.33z M547.73,436.06c-4.88,24.87-4.18,49.96-3.42,75.06c0.02,0.62-0.25,1.25-0.48,2.33
		c-10.51,0-21.03,0-31.55,0c0.53-12.16,0.91-21.7,1.61-38.76c0.08-1.91-2.68-5.46-4.41-5.66c-7.55-0.88-15.21-0.79-23.39-1.08
		c0.69,15.26,1.38,30.39,2.06,45.5c-11.06,0-22.13,0-33.23,0c0-25.4-0.14-50.04,0.22-74.68c0.03-2.36,2.64-5.43,4.88-6.88
		c18.32-11.81,38.42-13.21,59.11-8.71c8.55,1.86,16.87,4.9,25.13,7.86C545.89,431.63,548.02,434.61,547.73,436.06z"/>
	<path class="st6" d="M460.03,431.89c-2.25,1.45-4.85,4.53-4.88,6.88c-0.36,24.63-0.22,49.28-0.22,74.68c11.1,0,22.17,0,33.23,0
		c-0.68-15.11-1.37-30.24-2.06-45.5c8.18,0.28,15.84,0.2,23.39,1.08c1.73,0.2,4.49,3.75,4.41,5.66c-0.71,17.06-1.08,26.6-1.61,38.76
		c10.52,0,21.04,0,31.55,0c0.23-1.08,0.5-1.71,0.48-2.33c-0.76-25.1-1.47-50.19,3.42-75.06c0.28-1.45-1.85-4.44-3.46-5.02
		c-8.26-2.97-16.58-6-25.13-7.86C498.45,418.68,478.35,420.08,460.03,431.89z"/>
	<path class="st5" d="M455.79,326.82c-0.23,20.49-0.22,40.98-0.29,61.47c-0.01,2.55,0,5.1,0,8.54
		c37.32-12.27,85.3,12.03,98.08,19.98c12.79,7.95,39.52,7.09,44.86,3.57c5.19-3.42-2.79-12.92-12.03-24.96
		c-9.23-12.04-52.2-53.9-78.79-81.36c0,0-10.59,18.72-25.12,20.04c-14.53,1.32-26.41-10.57-26.41-10.57l-0.7-0.1
		C455.68,324.43,455.8,325.54,455.79,326.82z"/>
	<path class="st13" d="M498.19,558.83c-20.33-1.76-35.52,4.9-50.4,14.89c-0.8,0.53-3.1,1.52-3.7,2.4c-0.65-0.28,0.65,0.28,0,0
		c0-10.7-0.01-21.4,0.01-32.09c0-0.38,0.02-0.77,0.05-1.17c-8.22,0-16.43,0-24.65,0c0,27.72,0,122.18,0,122.18
		c2-0.61,4.23-0.99,5.63-1.68c5.05-2.46,9.89-4.2,15.02-7.51c2.13-1.37,4.11-2.52,4.82-3.97c0,0,0.14-32.63,0.14-35.97
		c3.74,1.92,7.05,3.67,10.41,5.36c5.41,2.72,11.01,4.6,16.78,5.63c0.18,0.03,0.37,0.08,0.54,0.1c0.07,0.01,0.13,0.01,0.2,0.02
		c0.34,0.06,0.67,0.12,1.01,0.17v-0.06c5.36,0.57,8.55,0.56,15.37,0.37c0.87-0.03,1.63-0.13,2.29-0.29
		c1.51-0.21,3.03-0.44,4.56-0.76c19.53-4.03,35.57-18.73,37.91-34.5C536.67,575.17,520.89,560.8,498.19,558.83z M513.23,601.99
		c-1.68,6.03-7.26,10.16-15.02,11.42c-2.62,0.43-5.22,0.61-7.76,0.56c-2.91-0.07-5.49-0.63-8.02-1.13
		c-2.63-0.52-6.64-2.35-10.18-4.15c-8.87-4.69-17.31-9.91-25.89-14.95c-2.96-1.74-2.31-3.77,0.11-5.59
		c10.33-7.78,22.29-12.71,36.39-13c2.17,0.08,3.82,0.11,5.46,0.22C505.88,576.57,517.01,588.47,513.23,601.99z"/>
	<path class="st13" d="M606.29,579c-8.17-0.4-16.44,0.13-24.64,0.56c-2.93,0.16-4.4-0.2-4.53-2.64c-0.61-11.25-1.27-22.5-1.93-34.08
		c-7.82,0-15.63,0-23.45,0c-0.01,0.96-0.01,1.92,0.04,2.87c0.71,12.27,0.61,24.61,2.42,36.77c1.87,12.58,8.78,23.1,26.89,26.98
		c-7.14,5.75-14.2,11.45-21.24,17.12c0,0,0,0,0,0l-24.91,20.08l0,0c-4.54,3.66-9.09,7.33-13.66,11.02c3.36,2.19,6.48,4.34,9.68,6.34
		c0.01,0.01,0.02,0.02,0.02,0.02c0.07,0.04,0.13,0.08,0.2,0.12c1.22,0.76,2.46,1.5,3.73,2.19c0.01,0.01,0.02,0.01,0.04,0.02v-0.01
		c0.8,0.25,11.06-6.35,14.92-10.07c6.61-6.36,13.22-12.72,19.81-19.1c3.28-2.54,5.69-5.51,10.49-10.19
		c8.6-8.37,17.16-16.75,25.65-25.18c3.89-3.86,6.62-8.69,8.59-13.41C616.71,582.86,613.7,579.36,606.29,579z"/>
	<g>
		<g>
			<path class="st4" d="M218.64,790.45V754.9h6.57c11.3,16.37,17.31,25.1,18.04,26.17V754.9h5.91v35.55h-6.59
				c-10.92-15.77-16.98-24.51-18.19-26.22v26.22H218.64z"/>
			<path class="st4" d="M272.56,791.01c-4.22,0-7.54-1.2-9.97-3.61c-2.43-2.41-3.65-5.56-3.65-9.45c0-1.76,0.29-3.43,0.88-5
				c0.59-1.58,1.41-2.98,2.48-4.2c1.07-1.22,2.42-2.19,4.05-2.91c1.64-0.72,3.45-1.07,5.43-1.07c1.99,0,3.72,0.34,5.2,1.03
				c1.48,0.68,2.65,1.64,3.52,2.87c0.86,1.23,1.5,2.61,1.92,4.14c0.42,1.53,0.62,3.22,0.62,5.08c0,0.47-0.04,0.83-0.12,1.07h-17.58
				c0.1,2.44,0.84,4.25,2.23,5.42s3.24,1.76,5.55,1.76c2.7,0,5.34-0.89,7.91-2.69l1.64,4.39c-1.58,1.09-3.17,1.89-4.77,2.41
				C276.29,790.75,274.51,791.01,272.56,791.01z M265.4,774.92h12.45c-0.29-1.77-0.95-3.13-1.98-4.08
				c-1.03-0.94-2.28-1.42-3.76-1.42c-1.74,0-3.2,0.49-4.37,1.46S265.79,773.21,265.4,774.92z"/>
			<path class="st4" d="M302.35,800.65c-3.26,0-6.43-0.57-9.52-1.71l1.05-5.22c2.44,1.27,5.12,1.9,8.03,1.9
				c2.34,0,4.17-0.5,5.49-1.5c1.32-1,1.98-2.51,1.98-4.53v-2.12c-1.43,1.99-3.52,2.98-6.27,2.98c-3.69,0-6.66-1.13-8.89-3.41
				c-2.23-2.27-3.34-5.33-3.34-9.17c0-1.76,0.24-3.41,0.71-4.94c0.47-1.54,1.17-2.92,2.1-4.16c0.93-1.24,2.16-2.21,3.7-2.93
				c1.54-0.72,3.29-1.07,5.26-1.07c1.55,0,2.9,0.31,4.06,0.93c1.16,0.62,2.06,1.42,2.7,2.39v-2.69h6.42
				c-0.33,2.47-0.49,5.27-0.49,8.4v13.06C315.34,796.06,311.01,800.65,302.35,800.65z M303.52,785.88c0.96,0,1.81-0.16,2.54-0.48
				c0.73-0.32,1.33-0.73,1.78-1.25c0.46-0.51,0.83-1.13,1.11-1.84c0.28-0.72,0.48-1.44,0.59-2.16c0.11-0.72,0.16-1.49,0.16-2.31
				c0-2.44-0.51-4.42-1.53-5.92c-1.02-1.51-2.54-2.26-4.58-2.26c-1.4,0-2.59,0.39-3.58,1.18c-0.98,0.79-1.7,1.79-2.14,2.99
				c-0.44,1.21-0.66,2.55-0.66,4.03c0,2.51,0.51,4.47,1.54,5.88S301.37,785.88,303.52,785.88z"/>
			<path class="st4" d="M336.71,791.01c-2.18,0-4.13-0.35-5.83-1.06c-1.71-0.71-3.09-1.67-4.14-2.88c-1.05-1.21-1.85-2.6-2.39-4.15
				c-0.55-1.55-0.82-3.22-0.82-4.99c0-1.81,0.28-3.5,0.83-5.07c0.55-1.57,1.36-2.96,2.43-4.18c1.07-1.21,2.45-2.17,4.15-2.87
				c1.7-0.7,3.62-1.05,5.75-1.05c2.18,0,4.12,0.35,5.81,1.04c1.69,0.69,3.05,1.64,4.08,2.86c1.03,1.21,1.79,2.6,2.31,4.17
				c0.51,1.57,0.77,3.28,0.77,5.14c0,1.74-0.27,3.38-0.81,4.92c-0.54,1.54-1.32,2.92-2.36,4.14c-1.03,1.22-2.39,2.19-4.08,2.91
				S338.83,791.01,336.71,791.01z M336.59,786.13c1.19,0,2.23-0.22,3.12-0.67c0.9-0.45,1.6-1.07,2.11-1.86
				c0.51-0.79,0.9-1.66,1.15-2.62c0.25-0.96,0.38-2,0.38-3.12c0-2.39-0.57-4.35-1.7-5.88c-1.13-1.53-2.81-2.29-5.04-2.29
				c-1.51,0-2.79,0.38-3.83,1.14c-1.04,0.76-1.79,1.74-2.26,2.94c-0.46,1.21-0.7,2.57-0.7,4.1c0,1.51,0.22,2.87,0.65,4.08
				c0.43,1.21,1.17,2.21,2.22,3C333.75,785.73,335.04,786.13,336.59,786.13z M333.95,761.98l6.45-7.08h7.76l-8.64,7.08H333.95z"/>
			<path class="st4" d="M370.51,791.01c-2.03,0-3.89-0.36-5.58-1.07s-3.06-1.68-4.14-2.91s-1.9-2.62-2.49-4.19
				c-0.59-1.57-0.88-3.22-0.88-4.94c0-2.47,0.51-4.7,1.53-6.68c1.02-1.98,2.52-3.55,4.52-4.71c1.99-1.16,4.32-1.75,6.97-1.75
				c3.94,0,6.97,1.12,9.08,3.37l-2.17,3.91c-1.81-1.59-3.9-2.39-6.27-2.39c-2.38,0-4.2,0.75-5.47,2.25c-1.27,1.5-1.9,3.51-1.9,6.03
				c0,2.46,0.68,4.44,2.03,5.94c1.35,1.51,3.2,2.26,5.54,2.26c0.33,0,0.65-0.02,0.98-0.05c0.33-0.03,0.62-0.07,0.88-0.12
				c0.26-0.05,0.53-0.12,0.82-0.21c0.28-0.09,0.52-0.17,0.72-0.24c0.2-0.07,0.42-0.17,0.66-0.31c0.24-0.13,0.44-0.23,0.57-0.31
				c0.14-0.07,0.31-0.18,0.52-0.33c0.21-0.15,0.35-0.24,0.43-0.29s0.2-0.14,0.39-0.28c0.19-0.14,0.29-0.22,0.31-0.23l1.83,4.44
				c-1.4,0.98-2.8,1.69-4.2,2.14C373.77,790.79,372.22,791.01,370.51,791.01z"/>
			<path class="st4" d="M386.9,760.22v-5.32h5.86v5.32H386.9z M386.93,790.45V765.4h5.83v25.05H386.93z"/>
			<path class="st4" d="M414.55,791.01c-2.18,0-4.13-0.35-5.83-1.06c-1.71-0.71-3.09-1.67-4.14-2.88c-1.05-1.21-1.85-2.6-2.39-4.15
				c-0.55-1.55-0.82-3.22-0.82-4.99c0-1.81,0.28-3.5,0.83-5.07c0.55-1.57,1.36-2.96,2.43-4.18c1.07-1.21,2.45-2.17,4.15-2.87
				c1.7-0.7,3.62-1.05,5.75-1.05c2.18,0,4.12,0.35,5.81,1.04c1.69,0.69,3.05,1.64,4.08,2.86c1.03,1.21,1.79,2.6,2.31,4.17
				c0.51,1.57,0.77,3.28,0.77,5.14c0,1.74-0.27,3.38-0.81,4.92c-0.54,1.54-1.32,2.92-2.36,4.14c-1.03,1.22-2.39,2.19-4.08,2.91
				S416.66,791.01,414.55,791.01z M414.43,786.13c1.19,0,2.23-0.22,3.12-0.67c0.9-0.45,1.6-1.07,2.11-1.86
				c0.51-0.79,0.9-1.66,1.15-2.62c0.25-0.96,0.38-2,0.38-3.12c0-2.39-0.57-4.35-1.7-5.88c-1.13-1.53-2.81-2.29-5.04-2.29
				c-1.51,0-2.79,0.38-3.83,1.14c-1.04,0.76-1.79,1.74-2.26,2.94c-0.46,1.21-0.7,2.57-0.7,4.1c0,1.51,0.22,2.87,0.65,4.08
				c0.43,1.21,1.17,2.21,2.22,3C411.58,785.73,412.88,786.13,414.43,786.13z"/>
			<path class="st4" d="M445.66,791.01c-2.2,0-4.22-0.31-6.05-0.93c-1.84-0.62-3.3-1.36-4.39-2.22l1.51-4.35
				c1.03,0.8,2.32,1.45,3.88,1.96c1.56,0.51,3.07,0.77,4.52,0.77c1.35,0,2.37-0.23,3.06-0.68c0.69-0.46,1.04-1.2,1.04-2.22v-0.44
				c0-0.52-0.2-0.96-0.61-1.33c-0.41-0.37-1.34-0.78-2.81-1.26l-3.56-1.15c-0.91-0.29-1.67-0.57-2.27-0.82
				c-0.6-0.25-1.22-0.57-1.84-0.96c-0.63-0.39-1.12-0.82-1.46-1.28c-0.35-0.46-0.63-1.03-0.85-1.71c-0.22-0.67-0.33-1.45-0.33-2.33
				c0-1.27,0.25-2.38,0.74-3.34c0.5-0.96,1.18-1.72,2.06-2.27c0.88-0.55,1.86-0.96,2.93-1.23c1.07-0.27,2.25-0.4,3.54-0.4
				c1.59,0,3.19,0.2,4.79,0.61c1.59,0.41,2.99,1.01,4.2,1.81l-1.56,4.15c-0.98-0.52-2.12-0.96-3.43-1.32
				c-1.31-0.36-2.49-0.54-3.55-0.54c-1.38,0-2.38,0.17-3,0.51c-0.62,0.34-0.93,0.9-0.93,1.68c0,0.52,0.1,0.93,0.29,1.22
				s0.6,0.59,1.22,0.9c0.62,0.31,1.61,0.69,2.98,1.15l3.25,1.1c1.3,0.44,2.35,0.92,3.14,1.44c0.79,0.52,1.42,1.26,1.9,2.22
				c0.48,0.96,0.72,2.17,0.72,3.61c0,1.11-0.18,2.11-0.55,3c-0.37,0.9-0.85,1.63-1.44,2.2c-0.59,0.57-1.29,1.04-2.1,1.42
				c-0.81,0.38-1.62,0.64-2.45,0.79C447.4,790.93,446.54,791.01,445.66,791.01z"/>
			<path class="st4" d="M480.33,790.45V754.9h6.2v35.55H480.33z"/>
			<path class="st4" d="M497.13,790.45v-16.99c0-1.72-0.08-3.5-0.24-5.32l-0.22-2.73h6.37v3.27c0.62-1.14,1.57-2.08,2.84-2.81
				c1.28-0.73,2.67-1.1,4.16-1.1c1.61,0,3.08,0.39,4.42,1.17c1.33,0.78,2.36,1.94,3.08,3.47c2.15-3.09,4.86-4.64,8.13-4.64
				c3.06,0,5.36,0.92,6.9,2.76c1.54,1.84,2.31,4.36,2.31,7.57v15.36h-6.05v-14.99c0-0.67-0.06-1.31-0.17-1.93
				c-0.11-0.62-0.3-1.23-0.55-1.84c-0.25-0.61-0.63-1.1-1.12-1.46c-0.5-0.37-1.09-0.55-1.77-0.55c-1.79,0-3.26,0.68-4.42,2.05
				c-1.16,1.37-1.73,2.88-1.73,4.54v14.18H513v-15.31c0-0.49-0.03-0.96-0.09-1.4c-0.06-0.45-0.17-0.93-0.33-1.44
				c-0.16-0.51-0.38-0.96-0.65-1.33c-0.27-0.37-0.64-0.68-1.12-0.93c-0.48-0.24-1.03-0.37-1.65-0.37c-1.71,0-3.13,0.56-4.27,1.67
				c-1.14,1.11-1.71,2.41-1.71,3.89v15.21H497.13z"/>
			<path class="st4" d="M556.44,791.01c-2.18,0-4.13-0.35-5.83-1.06c-1.71-0.71-3.09-1.67-4.14-2.88c-1.05-1.21-1.85-2.6-2.39-4.15
				c-0.55-1.55-0.82-3.22-0.82-4.99c0-1.81,0.28-3.5,0.83-5.07c0.55-1.57,1.36-2.96,2.43-4.18c1.07-1.21,2.45-2.17,4.15-2.87
				c1.7-0.7,3.62-1.05,5.75-1.05c2.18,0,4.12,0.35,5.81,1.04c1.69,0.69,3.05,1.64,4.08,2.86c1.03,1.21,1.79,2.6,2.31,4.17
				c0.51,1.57,0.77,3.28,0.77,5.14c0,1.74-0.27,3.38-0.81,4.92c-0.54,1.54-1.32,2.92-2.36,4.14c-1.03,1.22-2.39,2.19-4.08,2.91
				C560.46,790.65,558.56,791.01,556.44,791.01z M556.32,786.13c1.19,0,2.23-0.22,3.12-0.67c0.89-0.45,1.6-1.07,2.11-1.86
				c0.51-0.79,0.89-1.66,1.15-2.62c0.25-0.96,0.38-2,0.38-3.12c0-2.39-0.57-4.35-1.7-5.88c-1.13-1.53-2.81-2.29-5.04-2.29
				c-1.51,0-2.79,0.38-3.83,1.14c-1.04,0.76-1.79,1.74-2.26,2.94c-0.46,1.21-0.7,2.57-0.7,4.1c0,1.51,0.22,2.87,0.65,4.08
				c0.43,1.21,1.17,2.21,2.22,3C553.48,785.73,554.77,786.13,556.32,786.13z"/>
			<path class="st4" d="M591.71,791.01c-1.68,0-3.2-0.36-4.58-1.09c-1.38-0.72-2.36-1.58-2.97-2.58v3.1h-6.2
				c0.03-1.11,0.06-2.09,0.1-2.95c0.03-0.86,0.06-1.48,0.07-1.84c0.02-0.37,0.03-0.68,0.04-0.95c0.01-0.27,0.01-0.45,0.01-0.55
				s0-0.21,0-0.34v-28.93h6.01v14.04c0.08-0.29,0.28-0.65,0.61-1.07c0.33-0.42,0.79-0.88,1.38-1.36c0.59-0.48,1.41-0.89,2.44-1.22
				c1.03-0.33,2.17-0.5,3.41-0.5c3.52,0,6.29,1.21,8.33,3.64c2.03,2.43,3.05,5.56,3.05,9.4c0,1.92-0.31,3.71-0.94,5.37
				c-0.63,1.66-1.47,3.06-2.53,4.2c-1.06,1.14-2.3,2.03-3.72,2.67C594.79,790.69,593.28,791.01,591.71,791.01z M590.58,786.13
				c1.12,0,2.11-0.22,2.97-0.67c0.85-0.45,1.53-1.06,2.03-1.84c0.5-0.78,0.87-1.64,1.12-2.59c0.25-0.94,0.38-1.96,0.38-3.05
				c0-2.41-0.54-4.39-1.61-5.96s-2.64-2.34-4.69-2.34c-2.13,0-3.83,0.79-5.08,2.36c-1.25,1.57-1.88,3.52-1.88,5.85
				c0,1.48,0.24,2.83,0.72,4.04c0.48,1.21,1.24,2.22,2.28,3.02C587.86,785.73,589.12,786.13,590.58,786.13z"/>
			<path class="st4" d="M612.01,760.22v-5.32h5.86v5.32H612.01z M612.03,790.45V765.4h5.83v25.05H612.03z"/>
			<path class="st4" d="M627.3,790.45v-35.57h5.98v35.57H627.3z"/>
			<path class="st4" d="M642.64,760.22v-5.32h5.86v5.32H642.64z M642.66,790.45V765.4h5.83v25.05H642.66z"/>
			<path class="st4" d="M669.43,791.01c-2.04,0-3.86-0.37-5.47-1.1s-2.91-1.71-3.88-2.93s-1.72-2.58-2.22-4.08
				c-0.5-1.5-0.76-3.07-0.76-4.71c0-1.74,0.26-3.4,0.78-4.97c0.52-1.57,1.28-2.99,2.28-4.27c1-1.28,2.32-2.29,3.97-3.05
				c1.64-0.76,3.51-1.13,5.59-1.13c3.03,0,5.35,1.1,6.98,3.3v-2.66h5.93v25.05h-6.08v-3.42
				C674.74,789.68,672.36,791.01,669.43,791.01z M670.19,786.13c2.34,0,4.05-0.75,5.12-2.23c1.07-1.49,1.6-3.48,1.6-5.97
				c0-2.55-0.57-4.57-1.7-6.04c-1.13-1.47-2.84-2.21-5.14-2.21c-2.25,0-3.97,0.74-5.16,2.22c-1.2,1.48-1.79,3.48-1.79,5.98
				c0,2.51,0.6,4.51,1.79,6.01C666.1,785.38,667.86,786.13,670.19,786.13z M668.65,761.98l6.45-7.08h7.76l-8.64,7.08H668.65z"/>
			<path class="st4" d="M692.44,790.45v-18.7c0-0.98-0.04-1.99-0.12-3.05c-0.08-1.06-0.16-1.87-0.24-2.44l-0.12-0.85h6.45v3.3
				c0.99-1.3,1.98-2.28,2.97-2.94c0.98-0.66,2.09-0.99,3.33-0.99c0.73,0,1.56,0.12,2.49,0.37v5.3c-1.09-0.36-2.1-0.54-3.03-0.54
				c-1.68,0-3.04,0.55-4.1,1.64c-1.06,1.09-1.59,2.67-1.59,4.74v14.18H692.44z"/>
			<path class="st4" d="M713.49,760.22v-5.32h5.86v5.32H713.49z M713.52,790.45V765.4h5.83v25.05H713.52z"/>
			<path class="st4" d="M741.14,791.01c-2.18,0-4.13-0.35-5.83-1.06c-1.71-0.71-3.09-1.67-4.14-2.88c-1.05-1.21-1.85-2.6-2.39-4.15
				c-0.55-1.55-0.82-3.22-0.82-4.99c0-1.81,0.28-3.5,0.83-5.07c0.55-1.57,1.36-2.96,2.43-4.18c1.07-1.21,2.45-2.17,4.15-2.87
				c1.7-0.7,3.62-1.05,5.75-1.05c2.18,0,4.12,0.35,5.81,1.04c1.69,0.69,3.05,1.64,4.08,2.86c1.03,1.21,1.79,2.6,2.31,4.17
				c0.51,1.57,0.77,3.28,0.77,5.14c0,1.74-0.27,3.38-0.81,4.92c-0.54,1.54-1.32,2.92-2.36,4.14c-1.03,1.22-2.39,2.19-4.08,2.91
				C745.16,790.65,743.26,791.01,741.14,791.01z M741.02,786.13c1.19,0,2.23-0.22,3.12-0.67c0.89-0.45,1.6-1.07,2.11-1.86
				c0.51-0.79,0.89-1.66,1.15-2.62c0.25-0.96,0.38-2,0.38-3.12c0-2.39-0.57-4.35-1.7-5.88c-1.13-1.53-2.81-2.29-5.04-2.29
				c-1.51,0-2.79,0.38-3.83,1.14c-1.04,0.76-1.79,1.74-2.26,2.94c-0.46,1.21-0.7,2.57-0.7,4.1c0,1.51,0.22,2.87,0.65,4.08
				c0.43,1.21,1.17,2.21,2.22,3C738.17,785.73,739.47,786.13,741.02,786.13z"/>
			<path class="st4" d="M772.25,791.01c-2.2,0-4.22-0.31-6.05-0.93c-1.84-0.62-3.3-1.36-4.39-2.22l1.51-4.35
				c1.03,0.8,2.32,1.45,3.88,1.96c1.56,0.51,3.07,0.77,4.52,0.77c1.35,0,2.37-0.23,3.06-0.68c0.69-0.46,1.04-1.2,1.04-2.22v-0.44
				c0-0.52-0.2-0.96-0.61-1.33c-0.41-0.37-1.34-0.78-2.81-1.26l-3.56-1.15c-0.91-0.29-1.67-0.57-2.27-0.82
				c-0.6-0.25-1.22-0.57-1.84-0.96c-0.63-0.39-1.12-0.82-1.46-1.28c-0.35-0.46-0.63-1.03-0.86-1.71c-0.22-0.67-0.33-1.45-0.33-2.33
				c0-1.27,0.25-2.38,0.75-3.34c0.5-0.96,1.18-1.72,2.06-2.27c0.88-0.55,1.86-0.96,2.93-1.23c1.07-0.27,2.25-0.4,3.54-0.4
				c1.59,0,3.19,0.2,4.79,0.61c1.59,0.41,2.99,1.01,4.2,1.81l-1.56,4.15c-0.98-0.52-2.12-0.96-3.43-1.32
				c-1.31-0.36-2.49-0.54-3.55-0.54c-1.38,0-2.38,0.17-3,0.51c-0.62,0.34-0.93,0.9-0.93,1.68c0,0.52,0.1,0.93,0.29,1.22
				s0.6,0.59,1.22,0.9c0.62,0.31,1.61,0.69,2.98,1.15l3.25,1.1c1.3,0.44,2.35,0.92,3.14,1.44c0.79,0.52,1.42,1.26,1.9,2.22
				c0.48,0.96,0.72,2.17,0.72,3.61c0,1.11-0.18,2.11-0.55,3c-0.37,0.9-0.85,1.63-1.44,2.2c-0.59,0.57-1.29,1.04-2.1,1.42
				c-0.81,0.38-1.62,0.64-2.45,0.79C773.99,790.93,773.13,791.01,772.25,791.01z"/>
		</g>
		<g>
			<path class="st4" d="M395.83,646.12l-7.66,15.47c0.13,0-9.09-10.23-17.2-10.23c-6.28,0-11.65,2.88-11.65,9.16
				c0,7.85,4.97,12.3,15.7,16.49c13.87,5.5,22.25,11.52,22.25,26.04c0,13.35-10.34,26.7-29.44,26.7c-13.61,0-24.86-6.41-28.4-8.51
				l5.5-12.04c-0.13,0,14.39,8.38,21.85,8.38c9.16,0,13.74-4.84,13.74-12.96c0-7.85-4.97-10.73-13.09-14
				c-15.7-6.54-25.13-12.69-25.13-27.87c0-12.82,11.65-23.56,27.87-23.56C382.35,639.19,393.34,644.42,395.83,646.12z"/>
			<path class="st4" d="M444.53,663.79h14.92v33.63c0,20.68,9.85,26.43,9.85,26.43l-15.22,6.16c0,0-5.36-4.97-6.54-14.53
				c-4.71,10.21-14,14.26-23.29,14.26c-13.74,0-19.11-8.64-19.11-22.51v-43.45h14.92v43.18c0,7.2,2.36,11.78,8.64,11.78
				c7.72,0,15.83-9.16,15.83-23.03V663.79z"/>
			<path class="st4" d="M491.91,632.82l-2.94,38.56c4.14-2.49,7.7-5.88,15.12-7.59c9.17-2.12,18.13-3.1,18.13,7.76
				c0,15.44-9.56,28.22-9.56,28.22l18.32,29.18H514.1l-18.84-32.58l-0.13-1.31c2.88-0.65,9.77-8.4,12.57-15.66
				c1.84-4.76-1.55-4.4-6.16-2.93c-6.98,2.22-12.56,9.3-12.56,10.47v42.01h-14.92V636.7L491.91,632.82z"/>
			<path class="st4" d="M549.86,672.16c4.97-6.67,12.56-9.42,20.28-9.42c13.48,0,19.11,8.83,19.11,22.51
				c0,27.04,7.08,43.71,7.08,43.71h-22V686.3c0-7.33-2.36-11.91-8.64-11.91c-7.2,0-15.83,8.11-15.83,20.02v34.55h-14.92V636.7
				l14.92-2.62V672.16z"/>
			<path class="st4" d="M654.29,697.42c0,20.68,6.28,27.87,6.28,27.87l-11.65,4.71c0,0-6.02-5.5-6.67-16.1
				c-2.88,10.47-9.29,15.83-20.41,15.83c-16.36,0-24.08-12.82-24.08-32.45c0-19.89,12.69-34.55,31.28-34.55
				c10.47,0,24.08,3.53,25.26,3.79V697.42z M639.37,693.5v-18.84c-1.7-0.52-5.89-1.44-8.64-1.44c-13.09,0-16.88,9.55-16.88,22.77
				c0,12.17,0.92,23.29,10.47,23.29C632.96,719.27,639.37,706.32,639.37,693.5z"/>
		</g>
	</g>
</g>
</svg>
