<?xml version="1.0" encoding="utf-8"?>
<!-- Generator: Adobe Illustrator 28.3.0, SVG Export Plug-In . SVG Version: 6.00 Build 0)  -->
<svg version="1.1" id="Camada_1" xmlns="http://www.w3.org/2000/svg" xmlns:xlink="http://www.w3.org/1999/xlink" x="0px" y="0px"
	 viewBox="0 0 598.82 598.82" style="enable-background:new 0 0 598.82 598.82;" xml:space="preserve">
<style type="text/css">
	.st0{fill:#FFFFFF;}
	.st1{fill:#737277;}
	.st2{fill:#9C9BA0;}
	.st3{fill:#434041;}
	.st4{fill:#1B4C97;}
	.st5{fill:#FDD000;}
	.st6{fill:#FFEF00;}
	.st7{fill:#627AB7;}
	.st8{fill:#858E6D;}
	.st9{fill:#90A8D4;}
	.st10{fill:#B0AFB5;}
	.st11{fill:#D8DADE;}
	.st12{fill:#D9E6B1;}
	.st13{opacity:0.2;fill:#D9E6B1;}
</style>
<g>
	<path class="st4" d="M284.92,142.01c-6.57-7.51-13.19-15.07-20.03-22.88c-4.28,3.41-7.96,6.53-11.83,9.38
		c-7.81,5.74-16.25,9.67-26.35,8.6c-10.98-1.17-17.07-8.1-16.61-19.08c0.47-11.25,9.21-20.95,22.6-24.42
		c16.74-4.33,32.74-2.09,47.88,6.3c20.87,11.57,36.26,29.12,51.39,46.96c3.34,3.94,6.7,7.87,10.61,12.46
		c5.26-6.44,9.81-12.01,14.73-18.03c-27.99-29.83-57.17-57.55-96.49-71.12c-9.73-3.36-20.77-4.6-31.11-4.23
		c-23.81,0.85-41.5,17.22-43,38.67c-1.1,15.69,5.4,28.75,16.31,39.67C226,167.31,265.53,166.31,284.92,142.01z"/>
	<path class="st5" d="M280.57,99.91c-15.14-8.39-31.14-10.63-47.88-6.3c-13.39,3.46-22.13,13.17-22.6,24.42
		c-0.46,10.99,5.63,17.91,16.61,19.08c10.09,1.07,18.53-2.86,26.35-8.6c3.87-2.85,7.55-5.97,11.83-9.38
		c6.84,7.81,13.46,15.37,20.03,22.88c0,0,6.38-11.56,22.09-8.72c15.7,2.84,35.57,26.05,35.57,26.05
		c-3.91-4.59-7.27-8.52-10.61-12.46C316.83,129.04,301.45,111.48,280.57,99.91z"/>
	<path class="st4" d="M447.69,384.87c-1.69-3.49-4.01-4.52-7.78-4.48c-19.17,0.18-38.34,0.11-57.51,0.09
		c-2.32,0-4.64-0.21-8.65-0.41c0.91-20.77,1.87-40.74,2.62-60.72c0.2-5.28,2.17-6.23,7.41-5.82c11.81,0.91,23.74,1.38,35.55,0.7
		c8.1-0.47,11.3-5.08,10.29-13.09c-0.68-5.34-1.86-11.19-4.71-15.58c-8.86-13.62-18.05-27.1-28.15-39.81
		c-20.69-26.03-42.07-51.5-63.11-77.25c-2.39-2.93-4.75-5.78-8.66-2.71c-5.99,4.69-11.76,9.68-17.96,14.82
		c26.59,27.46,69.56,69.32,78.79,81.36c9.24,12.04,17.22,21.54,12.03,24.96c-5.34,3.52-32.08,4.37-44.86-3.57
		s-60.76-32.24-98.08-19.98c0-3.44-0.01-5.99,0-8.54c0.07-20.49,0.06-40.98,0.29-61.47c0.04-3.7-0.98-6.01-4.26-7.98
		c-7.72-4.67-15.12-9.87-22.78-14.65c-1.95-1.22-4.37-1.67-7.06-2.65c0,71.54,0,141.7,0,211.76c-14.58,0-29.08,0-43.65,0
		c-0.21,0-0.43,0-0.64,0c-12.44,0-24.8,0-37.97,0c1.09,3.52,1.55,6.1,2.65,8.37c2.42,5.04,5.46,9.8,7.69,14.93
		c2.08,4.78,5.08,6.25,10.33,6.24c5.9,0,11.8,0,17.7-0.01c91.37-0.02,182.74-0.02,274.11-0.03c2.28,0,4.55-0.26,8.67-0.52
		C455.4,399.96,451.37,392.5,447.69,384.87z M347.14,302.61c-4.88,24.87-4.18,49.96-3.42,75.06c0.02,0.62-0.25,1.25-0.48,2.33
		c-10.51,0-21.03,0-31.55,0c0.53-12.16,0.91-21.7,1.61-38.76c0.08-1.91-2.68-5.46-4.41-5.66c-7.55-0.88-15.21-0.79-23.39-1.08
		c0.69,15.26,1.38,30.39,2.06,45.5c-11.06,0-22.13,0-33.23,0c0-25.4-0.14-50.04,0.22-74.68c0.03-2.36,2.64-5.43,4.88-6.88
		c18.32-11.81,38.42-13.21,59.11-8.71c8.55,1.86,16.87,4.9,25.13,7.86C345.29,298.17,347.42,301.16,347.14,302.61z"/>
	<path class="st6" d="M259.44,298.44c-2.25,1.45-4.85,4.53-4.88,6.88c-0.36,24.63-0.22,49.28-0.22,74.68c11.1,0,22.17,0,33.23,0
		c-0.68-15.11-1.37-30.24-2.06-45.5c8.18,0.28,15.84,0.2,23.39,1.08c1.73,0.2,4.49,3.75,4.41,5.66c-0.71,17.06-1.08,26.6-1.61,38.76
		c10.52,0,21.04,0,31.55,0c0.23-1.08,0.5-1.71,0.48-2.33c-0.76-25.1-1.47-50.19,3.42-75.06c0.28-1.45-1.85-4.44-3.46-5.02
		c-8.26-2.97-16.58-6-25.13-7.86C297.86,285.23,277.76,286.63,259.44,298.44z"/>
	<path class="st5" d="M255.19,193.37c-0.23,20.49-0.22,40.98-0.29,61.47c-0.01,2.55,0,5.1,0,8.54
		c37.32-12.27,85.3,12.03,98.08,19.98s39.52,7.09,44.86,3.57c5.19-3.42-2.79-12.92-12.03-24.96c-9.23-12.04-52.2-53.9-78.79-81.36
		c0,0-10.59,18.72-25.12,20.04c-14.53,1.32-26.41-10.57-26.41-10.57l-0.7-0.1C255.08,190.98,255.21,192.08,255.19,193.37z"/>
	<path class="st12" d="M297.6,425.38c-20.33-1.76-35.52,4.9-50.4,14.89c-0.8,0.53-3.1,1.52-3.7,2.4c-0.65-0.28,0.65,0.28,0,0
		c0-10.7-0.01-21.4,0.01-32.09c0-0.38,0.02-0.77,0.05-1.17c-8.22,0-16.43,0-24.65,0c0,27.72,0,122.18,0,122.18
		c2-0.61,4.23-0.99,5.63-1.68c5.05-2.46,9.89-4.2,15.02-7.51c2.13-1.37,4.11-2.52,4.82-3.97c0,0,0.14-32.63,0.14-35.97
		c3.74,1.92,7.05,3.67,10.41,5.36c5.41,2.72,11.01,4.6,16.78,5.63c0.18,0.03,0.37,0.08,0.54,0.1c0.07,0.01,0.13,0.01,0.2,0.02
		c0.34,0.06,0.67,0.12,1.01,0.17v-0.06c5.36,0.57,8.55,0.56,15.37,0.37c0.87-0.03,1.63-0.13,2.29-0.29
		c1.51-0.21,3.03-0.44,4.56-0.76c19.53-4.03,35.57-18.73,37.91-34.5C336.08,441.71,320.3,427.35,297.6,425.38z M312.63,468.54
		c-1.68,6.03-7.26,10.16-15.02,11.42c-2.62,0.43-5.22,0.61-7.76,0.56c-2.91-0.07-5.49-0.63-8.02-1.13
		c-2.63-0.52-6.64-2.35-10.18-4.15c-8.87-4.69-17.31-9.91-25.89-14.95c-2.96-1.74-2.31-3.77,0.11-5.59
		c10.33-7.78,22.29-12.71,36.39-13c2.17,0.08,3.82,0.11,5.46,0.22C305.29,443.12,316.41,455.02,312.63,468.54z"/>
	<path class="st12" d="M405.69,445.55c-8.17-0.4-16.44,0.13-24.64,0.56c-2.93,0.16-4.4-0.2-4.53-2.64
		c-0.61-11.25-1.27-22.5-1.93-34.08c-7.82,0-15.63,0-23.45,0c-0.01,0.96-0.01,1.92,0.04,2.87c0.71,12.27,0.61,24.61,2.42,36.77
		c1.87,12.58,8.78,23.1,26.89,26.98c-7.14,5.75-14.2,11.45-21.24,17.12c0,0,0,0,0,0l-24.91,20.08l0,0
		c-4.54,3.66-9.09,7.33-13.66,11.02c3.36,2.19,6.48,4.34,9.68,6.34c0.01,0.01,0.02,0.02,0.02,0.02c0.07,0.04,0.13,0.08,0.2,0.12
		c1.22,0.76,2.46,1.5,3.73,2.19c0.01,0.01,0.02,0.01,0.04,0.02v-0.01c0.8,0.25,11.06-6.35,14.92-10.07
		c6.61-6.36,13.22-12.72,19.81-19.1c3.28-2.54,5.69-5.51,10.49-10.19c8.6-8.37,17.16-16.75,25.65-25.18
		c3.89-3.86,6.62-8.69,8.59-13.41C416.12,449.41,413.11,445.91,405.69,445.55z"/>
</g>
</svg>
